# xmcd CD database file
#
# Track frame offsets:
#	150
#	10315
#	16375
#	20182
#	26762
#	30932
#	34857
#	39350
#	48957
#	59112
#	66672
#	77005
#	95860
#	100342
#	104092
#	110282
#	116537
#	122065
#	130127
#	137232
#	141530
#	148222
#	154600
#	166037
#	173027
#	179765
#	186645
#	192085
#	199787
#	207947
#	214675
#	226370
#	230027
#	237275
#	240390
#	244835
#	249125
#	261022
#	264750
#	291337
#	298380
#
# Disc length: 4140 seconds
#
# Revision: 2
# Processed by: cddbd v1.5.2PL0 Copyright (c) Steve Scherf et al.
# Submitted via: CDex 1.70beta3
#
DISCID=6f102a29
DTITLE=菊地成孔 - Degustation A Jazz
DYEAR=2004
DGENRE=Jazz
TTITLE0=カヒミ・カリイのナレーションによるデギュスタシオン・コース開始の挨拶
TTITLE1=アルト・サックス、ウッド・ベース、ドラムス、ハープによる無調クールジャズ風
TTITLE2=アルト・サックス、ウッド・ベース、ドラムス、ハープによる無調クールジャズ風
TTITLE3=複数のブレイク・ビーツと電子オルガンによるヒップ・ホップ風、ソプラノ・サックス添え
TTITLE4=エリザベス・テイラー（カルテット）
TTITLE5=エリザベス・テイラー（トリオ）
TTITLE6=電化されたウッド・ベースとテナー・サックスにSEを添えて
TTITLE7=プリペアード・アコースティック・ギターとアルト・サックスによる無調ボサ・ノヴァ、ストリングス・クラウス・オガーマン・ソース
TTITLE8=時間について（映画「１０ミニッツ・オールダー」より。ルセットを変えて）
TTITLE9=ウッド・ベースをフューチュアしたストリングス・ダブル・カルテットによるトーン・クラスター、中南米文学風
TTITLE10=カヒミ・カリイの歌唱による「色彩のサンバ」
TTITLE11=菊地成孔クインテット・ライブ・ダブのステージ実況（新宿ピットイン）による「ユー・ドント・ノー・ホワット・ラヴ・イズ」
TTITLE12=フリージャズを効かせたジャズロック風、スパンクハッピーのスキャット乗せ、岩澤瞳のタイトル・コール添え
TTITLE13=人工ヴィブラフォンとドラムセットによる硬い鉱水
TTITLE14=ダブル・ストリングス・カルテットとテナー・サックスによるFマイナーのブルーズ・トーン・クラスター仕上げ
TTITLE15=ハン・トンヒョンのナレーションによる朝鮮風赤ワイン
TTITLE16=蘭（映画「１０ミニッツ・オールダー」より。ルセットを変えて）
TTITLE17=真珠（映画「１０ミニッツ・オールダー」より。ルセットを変えて）
TTITLE18=ピアノトリオに９人のブラス・セクションを乗せた無調チャールズ・ミンガス風
TTITLE19=ピアノ、ウッド・ベース、ドラムス、トランペット、フルート、フレンチ・ホルン、チューバ、テナー・サックス、トロンボーンによるチャールズ・ミンガス風「カズコ・マツオ」
TTITLE20=チューバ、セレスタ、ギブソン・セミアコースティック・ギターによる「ユー・マスト・ビリーヴ・イン・スプリング」を一切れ
TTITLE21=パイオニアCD-Jの操作によるピアノ・ソロ、UAのタイトルコール添え
TTITLE22=菊地成孔の歌唱による「ザ・クリスマス・ソング」
TTITLE23=キューバ産テナー・サックスと二つのブレイク・ビーツによるロティ・ハバナ葉巻風味
TTITLE24=キューバ産テナー・サックスと複数のブレイクビーツとパーカッションにハイハットを効かせたロティ、DCPRG風
TTITLE25=エレクトロニクスとソプラノ・サックスによる５拍子と４拍子のマーブル、重低音を効かせて
TTITLE26=プリペアード・アコースティック・ギターとアルト・サックスによるインプロヴィゼーション、ストリングス・中世アメリカソース
TTITLE27=ジャンプカットしたソプラノ・サックス・ソロ、大森百恵のタイトルコール添え
TTITLE28=エレクトロニクスとドラム、テナー・サックスによる軽快な教育番組風
TTITLE29=フェンダー・ローズとサンプリング・タブラによるステレオ聴覚テスト風
TTITLE30=菊地成孔クインテット・ライブ・ダブのステージ実況（新宿ピットイン）による「エリザベス・テイラー」
TTITLE31=キューバ産アルト・サックスとパーカッション、フェンダー・ローズによるカリブ～現代音楽風
TTITLE32=人工ヴィブラフォンとドラムソロによるエスプレッソ・ダークラムを一滴
TTITLE33=エリザベス・テイラー４（南博 GO THERE!）
TTITLE34=エリザベス・テイラー３（南博 GO THERE!）
TTITLE35=菊地成孔の歌唱による「コルコヴァード」フェード・イン＆アウト仕立て
TTITLE36=UAの歌唱による「マネージャングルのジャンヌ・ダルク」
TTITLE37=菊地成孔クインテット・ライブ・ダブのデビューステージ（六本木 STB１３９ スイートベイジル）に於けるアナウンス＆アプローズ
TTITLE38=菊地成孔クインテット・ライブ・ダブによる「イズファハン」
TTITLE39=大和田俊之のアナウンスによるデギュスタシオン・コース終了の挨拶
TTITLE40=菊地成孔の歌唱による「ラス・メイヤー、聞いてくれ」
EXTD=YEAR: 2004
EXTT0=
EXTT1=
EXTT2=
EXTT3=
EXTT4=
EXTT5=
EXTT6=
EXTT7=
EXTT8=
EXTT9=
EXTT10=
EXTT11=
EXTT12=
EXTT13=
EXTT14=
EXTT15=
EXTT16=
EXTT17=
EXTT18=
EXTT19=
EXTT20=
EXTT21=
EXTT22=
EXTT23=
EXTT24=
EXTT25=
EXTT26=
EXTT27=
EXTT28=
EXTT29=
EXTT30=
EXTT31=
EXTT32=
EXTT33=
EXTT34=
EXTT35=
EXTT36=
EXTT37=
EXTT38=
EXTT39=
EXTT40=
PLAYORDER=
